<?xml version="1.0" standalone="no"?>
<!DOCTYPE svg PUBLIC "-//W3C//DTD SVG 20010904//EN"
 "http://www.w3.org/TR/2001/REC-SVG-20010904/DTD/svg10.dtd">
<svg version="1.0" xmlns="http://www.w3.org/2000/svg"
 width="2484.000000pt" height="1040.000000pt" viewBox="0 0 2484.000000 1040.000000"
 preserveAspectRatio="xMidYMid meet">

<g transform="translate(0.000000,1040.000000) scale(0.100000,-0.100000)"
fill="#000000" stroke="none">
<path d="M3105 9890 c-11 -4 -247 -228 -525 -496 -278 -269 -730 -706 -1005
-972 -368 -355 -504 -493 -514 -520 -8 -20 -19 -40 -24 -43 -10 -7 -4 -729 6
-769 4 -14 8 -434 9 -935 1 -500 4 -987 7 -1080 l6 -171 86 -139 c77 -125
1024 -1673 1842 -3010 164 -269 306 -498 314 -507 19 -22 83 -60 83 -50 0 4
12 13 28 19 15 7 33 22 40 34 83 133 2009 3363 2021 3389 9 19 19 37 24 38 4
2 7 781 7 1731 0 1712 0 1728 -20 1769 -24 49 30 8 -755 577 -324 236 -803
583 -1063 773 -261 189 -486 350 -500 358 -30 16 -39 16 -67 4z m121 -304 c32
-24 167 -121 299 -216 132 -95 247 -181 255 -190 8 -10 354 -264 768 -564
l752 -547 0 -1665 0 -1666 -93 -156 c-52 -87 -294 -492 -539 -902 -245 -410
-633 -1060 -863 -1445 -230 -385 -420 -702 -422 -704 -5 -7 -18 12 -238 372
-517 848 -1122 1835 -1492 2437 l-403 654 0 1096 c0 602 -3 1232 -6 1400 l-7
305 477 459 c410 395 476 463 476 487 0 42 48 92 89 92 29 0 75 41 444 398
227 219 419 398 428 399 8 0 42 -20 75 -44z"/>
</g>
</svg>
